<svg width="300" height="300" xmlns="http://www.w3.org/2000/svg">

 <g>
  <title>background</title>
  <rect fill="none" id="canvas_background" height="302" width="302" y="-1" x="-1"/>
 </g>
 <g>
  <title>Layer 1</title>
  <g id="svg_1">
   <path stroke="null" id="svg_2" fill="#bd7625" d="m8.75814,121.3011c-0.48229,2.3593 -0.90835,4.73886 -1.27463,7.13818c-0.36578,2.39984 -0.67431,4.8179 -0.92205,7.25522c-0.49495,4.8721 -0.74876,9.81564 -0.74876,14.81845c0,5.00382 0.25381,9.94735 0.74876,14.81844c0.24774,2.43631 0.55474,4.85539 0.92205,7.25471c0.36576,2.39831 0.79234,4.7794 1.27463,7.13819c0.4823,2.35778 1.02336,4.69681 1.61813,7.01153c1.19257,4.63096 2.60602,9.17477 4.23225,13.61321c0.81261,2.21948 1.67891,4.41514 2.59538,6.58193c0.91596,2.16678 1.88511,4.30824 2.90188,6.42082c0.50661,1.05578 1.03096,2.10549 1.56442,3.14759c1.06643,2.08269 2.1825,4.13701 3.34669,6.16042c3.49107,6.07025 7.40872,11.86388 11.71291,17.34138c2.1521,2.73774 4.39943,5.39646 6.73897,7.97106c1.55986,1.71692 3.15925,3.39482 4.79967,5.03372c1.63889,1.64041 3.3178,3.2403 5.0337,4.80016c7.72181,7.01863 16.20455,13.21248 25.31042,18.45086c2.02342,1.16269 4.07824,2.28078 6.16093,3.3472c4.16689,2.13437 8.45031,4.07318 12.83911,5.80326c2.19363,0.86581 4.41513,1.67892 6.65994,2.43884c14.5925,4.93847 30.22811,7.61441 46.48686,7.61441c11.08572,0 21.88064,-1.24983 32.25103,-3.60557c4.8417,-1.10038 9.59323,-2.43783 14.23584,-4.00935c2.24531,-0.7589 4.46427,-1.57303 6.65994,-2.43782c4.38829,-1.72958 8.67322,-3.6689 12.83861,-5.80427c2.08369,-1.06642 4.13802,-2.18301 6.16041,-3.34618c9.10638,-5.23535 17.58912,-11.43326 25.31093,-18.45087c1.71691,-1.56037 3.39481,-3.16128 5.0337,-4.80017c1.63891,-1.63889 3.24031,-3.31781 4.80017,-5.03371c2.33904,-2.5736 4.58992,-5.2323 6.73847,-7.97106c3.40495,-4.33205 6.55913,-8.86573 9.4605,-13.5737c0.76702,-1.24475 1.51984,-2.49761 2.2519,-3.76819c1.1647,-2.0224 2.28077,-4.07824 3.3472,-6.16042c0.53346,-1.0421 1.05375,-2.09079 1.5634,-3.14658c1.0183,-2.11157 1.98593,-4.25302 2.9024,-6.42082c0.91645,-2.1678 1.78327,-4.36245 2.59537,-6.58294c1.62573,-4.43995 3.03969,-8.98175 4.23226,-13.6122c0.59577,-2.31623 1.13683,-4.65375 1.61863,-7.01152c0.48179,-2.35981 0.90835,-4.73938 1.27463,-7.13819c0.36528,-2.39933 0.6738,-4.8179 0.92205,-7.25471c0.49495,-4.87211 0.74928,-9.81564 0.74928,-14.81845c0,-5.00382 -0.25433,-9.94786 -0.74928,-14.81845c-0.24825,-2.43732 -0.55526,-4.85538 -0.92205,-7.25521c-0.36628,-2.39831 -0.79234,-4.7794 -1.27463,-7.13819c-0.4823,-2.35777 -1.02336,-4.69732 -1.61863,-7.01153c-1.19257,-4.63044 -2.60653,-9.17477 -4.23226,-13.61271c-0.40579,-1.10999 -0.82628,-2.2139 -1.25842,-3.31173c-1.29794,-3.29096 -2.71291,-6.52316 -4.23985,-9.69151c-0.50662,-1.05579 -1.03096,-2.10498 -1.56442,-3.14709c-1.06642,-2.08319 -2.18301,-4.13752 -3.3472,-6.16043c-3.49107,-6.07075 -7.40821,-11.86387 -11.71291,-17.34138c-2.15209,-2.73773 -4.39943,-5.39644 -6.73948,-7.97106c-1.55935,-1.7159 -3.15924,-3.39481 -4.79914,-5.0337c-1.63839,-1.64042 -3.31782,-3.24031 -5.03372,-4.79967c-3.32389,-3.02144 -6.79166,-5.88634 -10.38659,-8.59115c-4.7566,-3.57669 -9.73864,-6.87677 -14.92434,-9.8592c-2.02341,-1.16268 -4.07823,-2.28028 -6.16041,-3.3467c-0.94788,-0.48533 -1.90284,-0.958 -2.86136,-1.42155c-1.15052,-0.55677 -2.30863,-1.10392 -3.47587,-1.63079c-0.48888,-0.22038 -0.98233,-0.42961 -1.47223,-0.64492c-1.66219,-0.73003 -3.33453,-1.43676 -5.02966,-2.10498c-0.02279,-0.00963 -0.04762,-0.01723 -0.07142,-0.02787c-1.80558,-0.70976 -3.63344,-1.37798 -5.47397,-2.01834c-0.37185,-0.12868 -0.74117,-0.26648 -1.11505,-0.39213c-4.29254,-1.45245 -8.67323,-2.70379 -13.1375,-3.75299c-1.3942,-0.32879 -2.79449,-0.64187 -4.20338,-0.93014c-1.01322,-0.20771 -2.03658,-0.40022 -3.05994,-0.58615c-7.62454,-1.3861 -15.45578,-2.17033 -23.44608,-2.3132c-0.88151,-0.01621 -1.75997,-0.03343 -2.64554,-0.03343c-1.50211,0 -2.99814,0.0309 -4.48961,0.07598c-14.64974,0.44633 -28.75538,3.05995 -41.99827,7.54045c-2.2448,0.75991 -4.4658,1.57354 -6.65994,2.43833c-0.67886,0.26799 -1.3486,0.54866 -2.02291,0.82628c-1.50565,0.6201 -3.00118,1.2559 -4.48049,1.92362c-2.14094,0.96915 -4.25251,1.98592 -6.33571,3.05487c-2.0837,1.06643 -4.13751,2.183 -6.16093,3.34669c-8.14127,4.68162 -15.78101,10.13076 -22.828,16.2471c-0.83541,0.72547 -1.66322,1.45703 -2.48191,2.20175c-1.7164,1.55935 -3.39532,3.16076 -5.0337,4.79965c-1.63839,1.63889 -3.24031,3.31731 -4.79967,5.03371c-2.33954,2.5736 -4.58485,5.23231 -6.73897,7.97107c-4.30369,5.47548 -8.22132,11.27063 -11.71291,17.34138c-1.16419,2.02291 -2.28026,4.07824 -3.34669,6.16042c-0.53346,1.0421 -1.05426,2.0913 -1.56392,3.14708c-1.5249,3.16887 -2.94089,6.40106 -4.23984,9.69152c-0.43265,1.09783 -0.85263,2.20123 -1.25894,3.31123c-1.62622,4.43995 -3.03968,8.98175 -4.23225,13.61271c-0.58969,2.31167 -1.13025,4.65122 -1.61255,7.009m117.4381,-105.77586c0.2837,0.48077 0.5208,1.03552 1.21385,1.24627c1.35671,-0.70267 2.70988,0.04661 4.20439,0c1.456,-0.05117 2.75648,-0.71787 4.36093,-0.46659c2.83551,0.44328 6.79622,3.21548 9.03038,1.71134c0.56235,-0.37997 0.42911,-1.03552 0.93623,-2.02139c0.40427,-0.78779 1.03551,-1.66017 1.42307,-2.63084c1.12874,-0.02786 2.25848,-0.04357 3.3933,-0.04357c9.37387,0 18.53193,0.94736 27.38246,2.74685c-0.37084,0.97676 -1.58924,0.54107 -2.61108,1.01323c-0.95902,0.44481 -1.31719,1.36279 -2.33599,1.5548c-2.83198,0.53346 -5.17912,-0.70977 -7.62961,-0.62009c-0.115,1.06033 1.21132,1.67739 1.86839,2.01834c2.22151,1.1642 4.03012,1.00462 7.16352,0.9347c1.60495,-0.03545 3.44953,0.47926 4.82853,-0.4681c0.87392,-0.5968 0.82731,-1.91146 1.55835,-2.64148c0.31157,-0.30854 0.76904,-0.61859 1.28528,-0.88202c1.53757,0.36273 3.06501,0.75637 4.58485,1.17027c-0.25635,1.04819 -1.953,0.79538 -1.97478,2.19972c1.08365,0.64948 3.60252,-0.35513 4.57472,-1.46361c0.37591,0.11145 0.75485,0.22342 1.12975,0.3364c2.20275,0.66974 4.38221,1.39217 6.53734,2.16729c3.07008,1.10695 6.0895,2.3208 9.05875,3.63545c-0.56993,0.3364 -1.17736,0.76753 -1.6779,0.76449c-1.2873,-0.0081 -1.83749,-1.72705 -3.27323,-1.09125c-0.12462,1.66474 1.76302,2.33903 2.95863,3.10807c1.2944,0.83237 2.65364,1.6617 3.11365,3.1096c-1.26654,2.68505 -3.28793,-0.14084 -5.29361,-0.15351c-2.21035,-0.0157 -5.43545,4.19984 -7.31904,0.77664c0.46912,-1.81418 2.46974,-2.09586 2.95862,-3.88674c-0.42961,0.07295 -0.84504,0.21228 -1.25843,0.37844c-0.74016,0.29283 -1.4702,0.68798 -2.22556,1.09429c-0.99144,0.53347 -2.03151,1.06339 -3.21294,1.32682c-1.08567,0.23913 -2.14398,0.18137 -3.11466,0.46356c-5.90661,2.92873 -6.82764,2.84159 -7.6291,3.1101c-1.88003,0.62769 -4.13295,1.75034 -6.07226,2.79954c-1.98289,1.07098 -4.21908,2.19668 -5.45015,3.26462c-0.66468,0.57348 -2.39578,2.61362 -2.336,3.26158c0.07904,0.92558 1.82482,1.23259 1.86839,2.17793c-0.03951,0.57349 -1.0112,1.81064 -0.31055,2.643c5.64773,0.6049 7.20455,2.56752 9.02988,3.57467c7.12754,2.13335 9.5218,1.24222 9.81361,2.95356c0.2832,1.64497 -2.01379,2.23213 -2.17895,3.26461c1.15256,1.51934 -0.78271,2.24481 -0.77764,3.5767c0.0005,1.07858 1.32884,2.69721 2.4895,2.79498c5.2936,-4.97292 4.9643,-7.50143 6.38738,-8.85966c7.25673,0.20012 13.39537,-3.28994 12.92776,-10.725c-0.04661,-0.7346 -0.46405,-1.68045 -0.30954,-2.48798c0.22747,-1.20169 2.29648,-2.21036 2.02139,-3.72969c0.78272,-0.24064 1.25083,-0.8729 1.65055,-1.58418c0.59679,-1.06034 1.06186,-2.27115 2.17084,-2.67087c0.07801,-0.02939 0.14236,-0.07903 0.22848,-0.09778c0.63428,-0.14236 1.29895,-0.01672 1.99657,0.18948c1.24373,0.36729 2.59234,1.00005 4.07823,0.89924c0.75486,-0.05118 1.73465,-0.72699 2.49356,-0.6201c1.51984,0.21227 2.43782,2.08522 3.58176,2.95356c1.01119,0.77157 2.07813,0.52536 2.33599,1.55327c-0.2989,1.72553 -1.50008,1.79038 -1.40332,3.37506c0.00202,0.01723 -0.00101,0.02786 -0.00101,0.04509c0.115,1.4246 1.59685,2.50521 2.33599,2.64605c5.11781,-1.51275 6.2349,-2.76206 7.30335,-3.6304c1.5249,1.17078 3.02904,2.37044 4.50531,3.60101c0.1682,0.69153 0.28572,1.31467 0.34045,1.73617c0.21784,1.68043 -0.22748,2.9642 -0.15351,4.51139c0.20011,2.62122 3.5088,2.35475 5.13655,3.72817c0.49091,0.41695 0.68393,1.48032 1.09227,2.02139c0.79082,1.05274 1.74528,1.05274 1.86838,2.17489c0.29181,2.68505 -2.43782,2.91151 -2.18299,5.90812c-0.56285,1.16116 -1.98289,1.09126 -1.8684,2.64149c0.18188,2.45404 3.71348,0.57349 4.67251,2.48799c0.51927,1.02943 -0.08613,1.79493 -0.46812,3.26157c1.20828,1.43675 1.20017,3.72969 -0.93116,3.73273c-1.29541,0 -1.65257,-1.38914 -2.96166,-1.71134c-0.72749,-0.18136 -1.71893,-0.14591 -2.64604,-0.31005c-0.79336,-0.14084 -1.73769,-0.37642 -2.4895,-0.46659c-1.92259,-0.22797 -4.00427,0.33031 -5.14111,-0.77664c1.85318,-2.45707 4.31533,-4.87869 6.69794,-6.99481c0.70824,-0.63276 2.2291,-1.0649 1.86838,-2.33144c-1.3258,-1.16268 -2.95356,0.07144 -4.20438,0.77664c-1.31314,0.73813 -2.87959,1.80152 -4.36144,2.02139c-2.57562,0.38148 -5.99222,-0.75334 -8.09669,0.62009c-0.29081,1.17332 2.39577,0.71787 2.02138,2.48849c-1.02994,0.1687 -2.00568,0.25128 -2.79904,-0.46811c-0.72446,-0.651 -0.30954,-1.62927 -0.77867,-2.02139c-6.77595,-0.35361 -8.22335,0.62466 -8.41231,2.02139c1.96515,0.919 5.20647,-0.94585 5.91927,1.40129c-1.07756,1.93476 -3.61368,2.99966 -3.27323,5.59302c0.13375,1.00157 1.3258,2.33954 2.183,2.48848c0.86175,0.14844 1.34557,-0.70419 2.17793,-0.62466c0.88049,0.08208 0.68089,1.08669 1.71489,0.93471c1.49906,-0.63884 2.3284,-2.73926 4.04581,-2.64149c2.06091,2.49761 -13.90197,25.22177 -23.70324,14.42741c-9.80128,-10.79436 -31.98676,20.43419 -33.2918,21.16929c-5.62595,2.50013 -6.19031,3.59493 -7.4766,4.35283c-2.97332,1.7468 -6.56318,3.81479 -6.54039,8.23956c0.00051,0.95801 0.49953,1.99049 0.62162,3.1096c0.07498,0.6591 -0.07903,1.3025 0,2.02138c0.18492,1.62472 1.36431,3.69423 0,4.81688c-2.09586,-0.8587 -4.76217,-1.15051 -6.22831,-2.64148c-0.40174,-1.53504 0.81109,-2.79955 0.62516,-4.19678c-0.14945,-1.12216 -1.73059,-3.12226 -2.65111,-3.26614c-0.94736,-0.14895 -1.82127,0.85567 -2.79955,0.77663c-1.16419,-0.09169 -2.24632,-1.69107 -3.74082,-1.86484c-2.1906,-0.25584 -2.62618,-6.95197 -6.22882,0.15806c-2.34866,1.25235 -3.03563,-3.96902 -5.91421,3.26158c-2.87858,7.2306 -1.94235,-0.84807 -3.11415,-1.08821c-1.26958,-0.26191 0.33268,-6.98427 -4.519,-0.61857c-4.85168,6.3657 -4.57472,2.08066 -6.85043,3.26158c-2.00923,1.04464 -4.85386,2.34411 -5.45065,4.50937c-0.32728,1.16571 -0.05117,2.80765 -0.46811,3.88623c-0.2756,0.71027 -0.87746,1.34252 -1.24628,2.01683c-1.74578,3.18407 -3.19369,7.39301 -1.86838,11.9728c0.19707,0.67886 1.93171,4.51089 2.64654,5.285c0.80299,0.85972 3.16584,2.15107 4.51444,2.17489c1.1409,0.0228 2.47734,-0.57906 3.58176,-0.77664c1.28173,-0.22747 2.88668,-0.24824 4.05088,-0.62061c3.36695,-1.07554 1.85598,0.96126 6.07228,-7.15338c4.2163,-8.11464 0.62524,-1.62015 5.7607,-0.93014c5.13546,0.69001 1.20776,1.90031 1.09276,2.95153c-0.08663,0.79336 -0.842,1.51274 -1.24627,2.64401c-0.35361,0.99145 3.49349,7.64433 -0.77816,2.95457c-4.27165,-4.68976 -1.49755,1.81369 -1.86838,2.79905c-0.24318,0.64036 -0.10994,1.43776 -0.31005,2.01733c-0.35819,1.02336 -1.73009,1.7463 -1.09277,2.79904c3.33453,1.32379 7.36971,-0.37692 10.27969,0.15807c1.22804,0.2224 3.75908,1.68601 3.73628,3.57669c-0.0152,1.41294 -1.09277,2.33903 -1.24627,3.88674c-0.18947,1.9454 -1.0031,4.33002 -1.08973,5.90509c-0.1378,2.57967 3.79049,7.03027 6.54039,6.99481c2.96065,-0.03851 4.6877,-2.93988 8.25476,-1.39724c1.18446,0.51168 2.43428,2.42617 3.74134,2.33143c1.07757,-0.077 2.70532,-1.96211 3.42572,-3.26613c0.87746,-1.58925 0.93977,-2.92772 2.4895,-3.72918c6.09608,-1.59786 6.92693,-2.20631 7.78716,-2.80006c0.75486,-0.51725 1.55074,-1.87498 2.49253,-0.93419c1.24375,1.23967 -1.51983,1.93932 -0.4681,3.26614c2.1602,1.1419 3.26512,-2.12424 4.82954,-2.17389c4.00174,2.13793 4.7414,3.46879 6.07127,3.72817c0.85312,0.16921 2.22656,-0.32575 3.42672,-0.15654c1.58926,0.22645 2.53814,1.58924 3.74033,1.55327c1.46665,-0.0385 2.17084,-1.63281 3.42674,-1.86535c2.74888,-0.50256 3.77173,0.30651 4.98204,2.02139c1.3567,0.23457 1.40484,-1.56543 2.64705,-0.93014c-0.68088,1.35469 0.23254,1.97782 0.77765,3.10808c0.54511,1.13026 0.29485,1.2407 0.62516,1.5553c7.73853,6.51961 10.02031,8.12152 11.83197,8.2345c1.71185,0.10993 3.10402,-0.48382 4.51899,-0.30954c9.73155,5.46382 9.99243,5.72016 10.27665,6.52771c0.28422,0.80755 0.14541,1.8917 0.46812,2.79803c0.68848,1.93628 3.51641,2.87149 2.49355,6.21767c0.46812,0.98182 1.5168,1.33493 2.64605,2.02139c0.90329,0.54917 1.66827,1.7088 2.64604,1.86535c0.63327,0.10183 1.32073,-0.19201 1.86838,-0.15655c1.77011,0.12159 2.98447,0.80755 4.519,1.4013c1.53453,0.59375 2.17084,0.50661 2.80411,0.9352c6.65437,2.9875 8.92298,4.01138 10.4332,4.04025c4.3812,-0.16617 5.86658,1.02741 7.33323,2.36082c-18.7599,30.24432 -48.94394,52.69288 -84.47782,61.26985c-0.1307,-1.36228 -0.50661,-2.73318 -0.56791,-4.09344c-0.51472,-9.83742 -0.96409,-13.00173 -1.71083,-14.30119c-0.8339,-1.44487 -4.11016,-3.90144 -5.76071,-4.81993c-6.11989,-2.64199 -11.03354,-5.26422 -12.14657,-7.77247c-0.32271,-0.72242 -0.27914,-1.67891 -0.62516,-2.48544c-0.67582,-1.5933 -2.10346,-2.97433 -3.11365,-4.51089c-6.44969,-11.17336 -7.31448,-12.91814 -8.40877,-14.14262c-0.64188,-0.72243 -2.69417,-1.40129 -2.95761,-2.48748c-0.35058,-1.43776 -1.41548,-3.41052 -1.24627,-4.51088c0.22494,-1.48438 3.11922,-2.68556 3.11466,-4.03923c-2.65466,-5.17354 -0.77867,-7.89809 -0.46862,-8.5491c1.50667,-3.03057 2.66631,-3.27122 3.42623,-4.19628c0.42454,-0.51827 0.69254,-1.59888 1.24678,-2.33246c1.18345,-1.5705 -0.65071,1.56485 3.24842,-4.07668c3.89913,-5.64153 -4.08655,-7.70939 -8.07949,-10.5376c-3.99294,-2.82821 -2.44897,-1.86028 -4.51443,-2.48544c-0.82173,-0.25027 -2.13183,-0.23558 -2.64605,-0.46609c-1.50717,-0.67582 -1.99352,-2.87757 -3.58176,-3.73324c-1.32885,-0.70925 -2.46669,-0.46304 -3.27221,-1.55428c-0.33487,-0.75081 -0.07144,-2.10347 -0.15351,-3.10909c-1.70678,-0.99651 -3.15316,-4.71506 -5.1406,-5.59302c-1.3177,-0.58463 -3.33453,-0.53042 -4.98254,-1.08821c-0.77513,-0.26242 -1.37192,-0.60186 -2.1825,-0.77663c-0.99854,-0.22342 -2.02646,-0.23558 -2.79954,-0.62314c-3.08326,-1.52491 -4.74698,-6.47706 -8.56533,-6.37117c-1.62775,0.04154 -10.84845,8.95025 -12.32421,8.94113c-13.74221,-13.17512 -11.82048,-16.17 -13.06118,-17.02972c-1.17534,-0.81261 -2.44644,-2.05331 -2.49254,-3.10504c-0.05117,-1.21688 1.12063,-2.25291 1.24627,-3.42319c0.40124,-3.70182 -2.33144,-6.36205 -4.05088,-8.5491c-1.27413,-1.62471 0.5609,-18.12908 1.65578,-17.0807c11.0219,-16.85615 -21.81171,2.07606 -9.96828,2.86484c-2.00721,14.52034 -3.85991,13.61805 -4.14158,12.5111c-0.23558,-0.91444 0.58108,-2.14702 0.31005,-3.26614c-4.99521,-5.92383 -3.13138,-6.09252 -3.11467,-7.46292c0.01217,-1.49907 -2.04925,-2.76864 -2.49254,-4.04024c-0.40478,-1.16572 -0.47115,-3.02296 -0.62161,-4.66287c-0.14591,-1.5396 0.04307,-3.32238 -0.3146,-4.50987c-0.31917,-1.06795 -1.92717,-2.53814 -2.95812,-3.1096c-1.36381,-0.7579 -2.44644,-0.44329 -3.11416,-1.55327c-0.58108,-0.96916 -0.96408,-2.99511 -1.08973,-4.04025c-0.22493,-1.8694 -0.05116,-3.91308 -0.15654,-5.90813c-0.10233,-1.99808 -0.307,-3.9146 0,-6.06164c0.77057,-1.50362 2.17489,-2.24479 2.96065,-3.73424c0.54765,-1.03552 0.62466,-2.31624 1.24324,-3.41863c1.14089,-2.03152 3.62634,-3.9065 5.29715,-5.90813c1.80152,-2.15615 3.46017,-4.22161 4.51443,-6.68628c0.37844,-0.87442 1.39217,-2.81373 1.24627,-3.88624c-0.20467,-1.4945 -3.02753,-2.7271 -2.80461,-4.50683c0.14134,-1.10239 1.71437,-1.08669 2.18299,-2.17489c0.24013,-0.56133 0.45545,-2.12879 0.46811,-2.79955c0.0233,-1.49907 -0.77055,-3.05995 -0.46811,-4.66338c0.25584,-1.36583 2.29293,-1.91956 1.24627,-3.41964c-1.03856,-1.48539 -2.90238,0.80146 -4.05088,-0.15654c-1.05427,-0.88353 0.27155,-2.93024 0.31005,-3.57669c-0.21531,-2.55992 1.14089,-3.7302 0.77968,-4.19679c-0.56285,-0.7118 -1.17839,-2.14856 -2.05888,-3.29552c17.37178,-13.89439 38.18853,-23.6624 60.95068,-27.79384"/>
  </g>
 </g>
</svg>